<mxfile host="app.diagrams.net" modified="2021-03-21T10:04:16.595Z" agent="5.0 (Windows NT 6.1; Win64; x64) AppleWebKit/537.36 (KHTML, like Gecko) Chrome/89.0.4389.90 Safari/537.36" etag="YQEJE4lLibX3IXRPvccs" version="14.4.9" type="github">
  <diagram id="FO-RGReOxq80L-MBgQHs" name="Page-1">
    <mxGraphModel dx="2173" dy="702" grid="1" gridSize="10" guides="1" tooltips="1" connect="1" arrows="1" fold="1" page="1" pageScale="1" pageWidth="850" pageHeight="1100" background="#ffffff" math="0" shadow="1">
      <root>
        <mxCell id="0" />
        <mxCell id="1" parent="0" />
        <mxCell id="gR1ojCWEjcClbQMdaOFg-16" value="Chairman" style="rounded=0;whiteSpace=wrap;html=1;gradientDirection=south;sketch=1;fontColor=#0000FF;" parent="1" vertex="1">
          <mxGeometry x="341" y="41" width="120" height="40" as="geometry" />
        </mxCell>
        <mxCell id="gR1ojCWEjcClbQMdaOFg-17" value="" style="rounded=0;whiteSpace=wrap;html=1;gradientDirection=south;sketch=1;" parent="1" vertex="1">
          <mxGeometry x="341" y="123" width="120" height="40" as="geometry" />
        </mxCell>
        <mxCell id="gR1ojCWEjcClbQMdaOFg-18" value="" style="rounded=0;whiteSpace=wrap;html=1;gradientDirection=south;sketch=1;" parent="1" vertex="1">
          <mxGeometry x="550" y="123" width="120" height="40" as="geometry" />
        </mxCell>
        <mxCell id="gR1ojCWEjcClbQMdaOFg-19" value="" style="rounded=0;whiteSpace=wrap;html=1;gradientDirection=south;sketch=1;" parent="1" vertex="1">
          <mxGeometry x="341" y="200" width="120" height="40" as="geometry" />
        </mxCell>
        <mxCell id="gR1ojCWEjcClbQMdaOFg-20" value="" style="rounded=0;whiteSpace=wrap;html=1;gradientDirection=south;sketch=1;" parent="1" vertex="1">
          <mxGeometry x="550" y="200" width="120" height="40" as="geometry" />
        </mxCell>
        <mxCell id="gR1ojCWEjcClbQMdaOFg-21" value="" style="rounded=0;whiteSpace=wrap;html=1;gradientDirection=south;sketch=1;" parent="1" vertex="1">
          <mxGeometry x="-20" y="200" width="120" height="40" as="geometry" />
        </mxCell>
        <mxCell id="gR1ojCWEjcClbQMdaOFg-22" value="" style="rounded=0;whiteSpace=wrap;html=1;gradientDirection=south;sketch=1;" parent="1" vertex="1">
          <mxGeometry x="189" y="200" width="120" height="40" as="geometry" />
        </mxCell>
        <mxCell id="gR1ojCWEjcClbQMdaOFg-23" value="" style="rounded=0;whiteSpace=wrap;html=1;gradientDirection=south;sketch=1;" parent="1" vertex="1">
          <mxGeometry x="341" y="300" width="120" height="40" as="geometry" />
        </mxCell>
        <mxCell id="gR1ojCWEjcClbQMdaOFg-24" value="" style="rounded=0;whiteSpace=wrap;html=1;gradientDirection=south;sketch=1;" parent="1" vertex="1">
          <mxGeometry x="550" y="300" width="120" height="40" as="geometry" />
        </mxCell>
        <mxCell id="gR1ojCWEjcClbQMdaOFg-25" value="" style="rounded=0;whiteSpace=wrap;html=1;gradientDirection=south;sketch=1;" parent="1" vertex="1">
          <mxGeometry x="-20" y="300" width="120" height="40" as="geometry" />
        </mxCell>
        <mxCell id="gR1ojCWEjcClbQMdaOFg-26" value="" style="rounded=0;whiteSpace=wrap;html=1;gradientDirection=south;sketch=1;" parent="1" vertex="1">
          <mxGeometry x="189" y="300" width="120" height="40" as="geometry" />
        </mxCell>
        <mxCell id="gR1ojCWEjcClbQMdaOFg-27" value="" style="rounded=0;whiteSpace=wrap;html=1;gradientDirection=south;sketch=1;" parent="1" vertex="1">
          <mxGeometry x="720" y="200" width="120" height="40" as="geometry" />
        </mxCell>
        <mxCell id="gR1ojCWEjcClbQMdaOFg-28" value="" style="rounded=0;whiteSpace=wrap;html=1;gradientDirection=south;sketch=1;" parent="1" vertex="1">
          <mxGeometry x="720" y="300" width="120" height="40" as="geometry" />
        </mxCell>
        <mxCell id="gR1ojCWEjcClbQMdaOFg-29" value="" style="rounded=0;whiteSpace=wrap;html=1;gradientDirection=south;sketch=1;" parent="1" vertex="1">
          <mxGeometry x="341" y="390" width="120" height="40" as="geometry" />
        </mxCell>
        <mxCell id="gR1ojCWEjcClbQMdaOFg-30" value="" style="rounded=0;whiteSpace=wrap;html=1;gradientDirection=south;sketch=1;" parent="1" vertex="1">
          <mxGeometry x="-20" y="390" width="120" height="40" as="geometry" />
        </mxCell>
        <mxCell id="gR1ojCWEjcClbQMdaOFg-31" value="" style="rounded=0;whiteSpace=wrap;html=1;gradientDirection=south;sketch=1;" parent="1" vertex="1">
          <mxGeometry x="189" y="390" width="120" height="40" as="geometry" />
        </mxCell>
        <mxCell id="gR1ojCWEjcClbQMdaOFg-32" value="" style="rounded=0;whiteSpace=wrap;html=1;gradientDirection=south;sketch=1;" parent="1" vertex="1">
          <mxGeometry x="341" y="490" width="120" height="40" as="geometry" />
        </mxCell>
        <mxCell id="gR1ojCWEjcClbQMdaOFg-33" value="" style="rounded=0;whiteSpace=wrap;html=1;gradientDirection=south;sketch=1;" parent="1" vertex="1">
          <mxGeometry x="-20" y="490" width="120" height="40" as="geometry" />
        </mxCell>
        <mxCell id="gR1ojCWEjcClbQMdaOFg-34" value="" style="rounded=0;whiteSpace=wrap;html=1;gradientDirection=south;sketch=1;" parent="1" vertex="1">
          <mxGeometry x="189" y="490" width="120" height="40" as="geometry" />
        </mxCell>
        <mxCell id="gR1ojCWEjcClbQMdaOFg-36" value="" style="rounded=0;whiteSpace=wrap;html=1;gradientDirection=south;sketch=1;" parent="1" vertex="1">
          <mxGeometry x="341" y="560" width="120" height="40" as="geometry" />
        </mxCell>
        <mxCell id="gR1ojCWEjcClbQMdaOFg-37" value="" style="rounded=0;whiteSpace=wrap;html=1;gradientDirection=south;sketch=1;" parent="1" vertex="1">
          <mxGeometry x="341" y="650" width="120" height="40" as="geometry" />
        </mxCell>
        <mxCell id="gR1ojCWEjcClbQMdaOFg-38" value="" style="rounded=0;whiteSpace=wrap;html=1;gradientDirection=south;sketch=1;" parent="1" vertex="1">
          <mxGeometry x="341" y="750" width="120" height="40" as="geometry" />
        </mxCell>
        <mxCell id="gR1ojCWEjcClbQMdaOFg-39" value="" style="rounded=0;whiteSpace=wrap;html=1;gradientDirection=south;sketch=1;" parent="1" vertex="1">
          <mxGeometry x="341" y="820" width="120" height="40" as="geometry" />
        </mxCell>
      </root>
    </mxGraphModel>
  </diagram>
</mxfile>
